<svg xmlns="http://www.w3.org/2000/svg" xmlns:xlink="http://www.w3.org/1999/xlink" width="500" zoomAndPan="magnify" viewBox="0 0 375 374.999991" height="500" preserveAspectRatio="xMidYMid meet" version="1.0"><defs><g/><clipPath id="6decdcf583"><path d="M 144.175781 84.527344 L 231 84.527344 L 231 229 L 144.175781 229 Z M 144.175781 84.527344 " clip-rule="nonzero"/></clipPath></defs><g clip-path="url(#6decdcf583)"><path fill="#cecabf" d="M 150.695312 169.078125 L 151.207031 199 L 151.722656 228.921875 L 149.660156 228.921875 L 150.171875 199 Z M 156.144531 165.597656 L 156.65625 197.261719 L 157.171875 228.921875 L 155.109375 228.921875 L 155.628906 197.261719 Z M 166.527344 102.089844 L 167.042969 165.507812 L 167.558594 228.921875 L 165.496094 228.921875 L 166.011719 165.507812 Z M 171.664062 99.808594 L 172.175781 164.363281 L 172.691406 228.921875 L 170.628906 228.921875 L 171.144531 164.363281 Z M 176.800781 96.609375 L 177.3125 162.765625 L 177.828125 228.921875 L 175.765625 228.921875 L 176.277344 162.765625 Z M 181.9375 94.554688 L 182.449219 161.738281 L 182.964844 228.921875 L 180.902344 228.921875 L 181.414062 161.738281 Z M 187.070312 91.816406 L 187.582031 160.371094 L 188.097656 228.921875 L 186.035156 228.921875 L 186.546875 160.371094 Z M 208.75 139.40625 L 209.261719 184.164062 L 209.777344 228.921875 L 207.714844 228.921875 L 208.226562 184.164062 Z M 213.996094 142.605469 L 214.511719 185.761719 L 215.023438 228.921875 L 212.960938 228.921875 L 213.476562 185.761719 Z M 219.246094 145.457031 L 219.761719 187.191406 L 220.273438 228.925781 L 218.210938 228.925781 L 218.726562 187.191406 Z M 224.496094 147.738281 L 225.007812 188.328125 L 225.523438 228.921875 L 223.460938 228.921875 L 223.972656 188.328125 Z M 229.746094 149.566406 L 230.261719 189.246094 L 230.773438 228.925781 L 228.714844 228.925781 L 229.226562 189.246094 Z M 193.03125 89.433594 L 194.0625 146.902344 L 191.996094 146.902344 L 192.511719 118.167969 Z M 198.253906 86.640625 L 199.285156 144.25 L 197.222656 144.25 L 197.734375 115.445312 Z M 203.476562 84.527344 L 203.988281 112.933594 L 204.503906 141.335938 L 202.445312 141.335938 L 202.957031 112.933594 Z M 145.246094 171.390625 L 145.757812 200.15625 L 146.273438 228.921875 L 144.214844 228.921875 L 144.726562 200.15625 Z M 145.246094 171.390625 " fill-opacity="1" fill-rule="evenodd"/></g><path stroke-linecap="butt" transform="matrix(0.75, 0, 0, 0.75, 78.594491, 227.624985)" fill="none" stroke-linejoin="miter" d="M -0.000988452 1.00002 L 89.842767 1.00002 " stroke="#cecabf" stroke-width="2" stroke-opacity="1" stroke-miterlimit="4"/><path stroke-linecap="butt" transform="matrix(0.75, 0, 0, 0.75, 78.594491, 282.558145)" fill="none" stroke-linejoin="miter" d="M -0.000988452 1.000599 L 43.915681 1.000599 " stroke="#cecabf" stroke-width="2" stroke-opacity="1" stroke-miterlimit="4"/><path stroke-linecap="butt" transform="matrix(0.75, 0, 0, 0.75, 260.979422, 282.558145)" fill="none" stroke-linejoin="miter" d="M 0.00139598 1.000599 L 43.918066 1.000599 " stroke="#cecabf" stroke-width="2" stroke-opacity="1" stroke-miterlimit="4"/><path stroke-linecap="butt" transform="matrix(0.748882, -0.00227045, 0.00227045, 0.748882, 230.816401, 227.624985)" fill="none" stroke-linejoin="miter" d="M 0.00218626 1.001519 L 84.132795 1.000996 " stroke="#cecabf" stroke-width="2" stroke-opacity="1" stroke-miterlimit="4"/><g fill="#cecabf" fill-opacity="1"><g transform="translate(75.055833, 266.937631)"><g><path d="M 13.832031 0 L 13.832031 -23.539062 L 23.613281 -23.539062 L 23.613281 -25.546875 L 0.730469 -25.546875 L 0.730469 -23.539062 L 10.511719 -23.539062 L 10.511719 0 Z M 13.832031 0 "/></g></g></g><g fill="#cecabf" fill-opacity="1"><g transform="translate(99.398799, 266.937631)"><g><path d="M 4.378906 -25.546875 L 4.378906 0 L 20.875 0 L 20.875 -2.007812 L 7.699219 -2.007812 L 7.699219 -12.699219 L 19.015625 -12.699219 L 19.015625 -14.378906 L 7.699219 -14.378906 L 7.699219 -23.539062 L 20.875 -23.539062 L 20.875 -25.546875 Z M 4.378906 -25.546875 "/></g></g></g><g fill="#cecabf" fill-opacity="1"><g transform="translate(121.369505, 266.937631)"><g><path d="M 25.875 -4.707031 C 23.394531 -2.371094 20.449219 -1.203125 17.042969 -1.203125 C 15.144531 -1.203125 13.46875 -1.53125 12.007812 -2.191406 C 10.546875 -2.847656 9.332031 -3.722656 8.359375 -4.816406 C 7.382812 -5.914062 6.648438 -7.175781 6.148438 -8.613281 C 5.652344 -10.046875 5.402344 -11.546875 5.402344 -13.101562 C 5.402344 -14.757812 5.664062 -16.269531 6.1875 -17.644531 C 6.710938 -19.019531 7.445312 -20.207031 8.394531 -21.203125 C 9.34375 -22.203125 10.46875 -22.980469 11.769531 -23.539062 C 13.070312 -24.101562 14.488281 -24.378906 16.023438 -24.378906 C 17.066406 -24.378906 18.023438 -24.257812 18.886719 -24.015625 C 19.75 -23.769531 20.515625 -23.453125 21.1875 -23.066406 C 21.855469 -22.675781 22.402344 -22.230469 22.828125 -21.734375 C 23.253906 -21.234375 23.550781 -20.730469 23.722656 -20.21875 L 26.421875 -20.21875 C 26.058594 -21.046875 25.589844 -21.8125 25.019531 -22.519531 C 24.445312 -23.222656 23.734375 -23.832031 22.882812 -24.34375 C 22.03125 -24.855469 21.035156 -25.253906 19.890625 -25.546875 C 18.746094 -25.839844 17.445312 -25.984375 15.984375 -25.984375 C 13.867188 -25.984375 11.941406 -25.679688 10.199219 -25.074219 C 8.460938 -24.464844 6.972656 -23.59375 5.730469 -22.464844 C 4.488281 -21.332031 3.527344 -19.96875 2.847656 -18.375 C 2.164062 -16.78125 1.824219 -15 1.824219 -13.027344 C 1.824219 -11.324219 2.097656 -9.664062 2.644531 -8.046875 C 3.195312 -6.429688 4.039062 -4.992188 5.183594 -3.742188 C 6.324219 -2.488281 7.785156 -1.476562 9.5625 -0.710938 C 11.339844 0.0546875 13.453125 0.4375 15.914062 0.4375 C 17.46875 0.4375 18.863281 0.292969 20.089844 0 C 21.320312 -0.292969 22.390625 -0.652344 23.304688 -1.078125 C 24.214844 -1.503906 24.976562 -1.957031 25.582031 -2.445312 C 26.191406 -2.933594 26.65625 -3.359375 26.972656 -3.722656 Z M 25.875 -4.707031 "/></g></g></g><g fill="#cecabf" fill-opacity="1"><g transform="translate(149.070116, 266.937631)"><g><path d="M 5.839844 -25.546875 L 5.839844 0 L 9.160156 0 L 9.160156 -25.546875 Z M 5.839844 -25.546875 "/></g></g></g><g fill="#cecabf" fill-opacity="1"><g transform="translate(164.070055, 266.937631)"><g><path d="M 4.378906 -25.546875 L 4.378906 0 L 7.699219 0 L 7.699219 -11.277344 L 9.304688 -11.277344 C 9.988281 -11.277344 10.554688 -11.214844 11.003906 -11.09375 C 11.453125 -10.972656 11.859375 -10.765625 12.226562 -10.472656 C 12.589844 -10.183594 12.933594 -9.804688 13.25 -9.34375 C 13.5625 -8.878906 13.941406 -8.308594 14.378906 -7.628906 L 17.261719 -3.359375 C 17.628906 -2.796875 17.988281 -2.285156 18.339844 -1.824219 C 18.691406 -1.363281 19.074219 -0.96875 19.488281 -0.640625 C 19.902344 -0.308594 20.371094 -0.046875 20.894531 0.144531 C 21.417969 0.339844 22.042969 0.4375 22.773438 0.4375 C 23.308594 0.4375 23.746094 0.414062 24.085938 0.363281 C 24.429688 0.316406 24.769531 0.195312 25.109375 0 L 25.109375 -1.351562 C 24.988281 -1.324219 24.867188 -1.308594 24.746094 -1.296875 C 24.621094 -1.285156 24.5 -1.277344 24.378906 -1.277344 C 23.867188 -1.277344 23.417969 -1.351562 23.027344 -1.496094 C 22.640625 -1.640625 22.273438 -1.855469 21.933594 -2.136719 C 21.59375 -2.414062 21.265625 -2.753906 20.949219 -3.15625 C 20.632812 -3.558594 20.304688 -4.015625 19.964844 -4.527344 C 18.941406 -6.007812 18.152344 -7.195312 17.589844 -8.082031 C 17.03125 -8.972656 16.585938 -9.660156 16.257812 -10.144531 C 15.929688 -10.632812 15.664062 -10.984375 15.457031 -11.203125 C 15.25 -11.421875 15 -11.605469 14.707031 -11.75 L 14.34375 -11.933594 L 14.34375 -12.082031 C 15.511719 -12.152344 16.515625 -12.410156 17.355469 -12.847656 C 18.195312 -13.285156 18.878906 -13.832031 19.414062 -14.488281 C 19.953125 -15.144531 20.339844 -15.859375 20.582031 -16.625 C 20.828125 -17.390625 20.949219 -18.136719 20.949219 -18.867188 C 20.949219 -19.527344 20.820312 -20.242188 20.566406 -21.023438 C 20.308594 -21.800781 19.871094 -22.523438 19.25 -23.195312 C 18.632812 -23.863281 17.785156 -24.421875 16.714844 -24.871094 C 15.644531 -25.324219 14.292969 -25.546875 12.664062 -25.546875 Z M 7.699219 -23.941406 L 11.386719 -23.941406 C 12.3125 -23.941406 13.144531 -23.808594 13.886719 -23.539062 C 14.628906 -23.273438 15.269531 -22.902344 15.804688 -22.425781 C 16.339844 -21.953125 16.746094 -21.386719 17.027344 -20.730469 C 17.304688 -20.074219 17.445312 -19.355469 17.445312 -18.578125 C 17.445312 -17.917969 17.316406 -17.257812 17.0625 -16.585938 C 16.804688 -15.917969 16.421875 -15.308594 15.914062 -14.761719 C 15.402344 -14.214844 14.773438 -13.769531 14.03125 -13.429688 C 13.289062 -13.089844 12.433594 -12.917969 11.460938 -12.917969 L 7.699219 -12.917969 Z M 7.699219 -23.941406 "/></g></g></g><g fill="#cecabf" fill-opacity="1"><g transform="translate(190.274323, 266.937631)"><g><path d="M 1.824219 -12.773438 C 1.824219 -11.410156 2.085938 -9.957031 2.609375 -8.414062 C 3.132812 -6.867188 3.953125 -5.4375 5.074219 -4.125 C 6.191406 -2.808594 7.617188 -1.722656 9.34375 -0.859375 C 11.070312 0.0078125 13.136719 0.4375 15.546875 0.4375 C 17.175781 0.4375 18.65625 0.238281 19.980469 -0.164062 C 21.308594 -0.566406 22.5 -1.105469 23.558594 -1.789062 C 24.617188 -2.46875 25.535156 -3.253906 26.3125 -4.140625 C 27.09375 -5.03125 27.730469 -5.96875 28.230469 -6.953125 C 28.730469 -7.9375 29.105469 -8.929688 29.359375 -9.925781 C 29.617188 -10.925781 29.746094 -11.875 29.746094 -12.773438 C 29.746094 -14.136719 29.464844 -15.589844 28.90625 -17.136719 C 28.34375 -18.679688 27.480469 -20.109375 26.3125 -21.421875 C 25.144531 -22.738281 23.667969 -23.824219 21.878906 -24.691406 C 20.089844 -25.554688 17.980469 -25.984375 15.546875 -25.984375 C 13.136719 -25.984375 11.070312 -25.558594 9.34375 -24.707031 C 7.617188 -23.855469 6.191406 -22.78125 5.074219 -21.476562 C 3.953125 -20.175781 3.132812 -18.746094 2.609375 -17.191406 C 2.085938 -15.632812 1.824219 -14.160156 1.824219 -12.773438 Z M 5.402344 -12.773438 C 5.402344 -14.476562 5.664062 -16.039062 6.1875 -17.464844 C 6.710938 -18.886719 7.425781 -20.109375 8.339844 -21.132812 C 9.25 -22.152344 10.328125 -22.949219 11.570312 -23.523438 C 12.808594 -24.09375 14.160156 -24.378906 15.621094 -24.378906 C 17.054688 -24.378906 18.414062 -24.09375 19.691406 -23.523438 C 20.96875 -22.949219 22.085938 -22.152344 23.046875 -21.132812 C 24.007812 -20.109375 24.769531 -18.886719 25.328125 -17.464844 C 25.886719 -16.039062 26.167969 -14.476562 26.167969 -12.773438 C 26.167969 -11.070312 25.886719 -9.507812 25.328125 -8.082031 C 24.769531 -6.660156 24.007812 -5.4375 23.046875 -4.417969 C 22.085938 -3.394531 20.96875 -2.597656 19.691406 -2.027344 C 18.414062 -1.453125 17.054688 -1.167969 15.621094 -1.167969 C 14.160156 -1.167969 12.808594 -1.453125 11.570312 -2.027344 C 10.328125 -2.597656 9.25 -3.394531 8.339844 -4.417969 C 7.425781 -5.4375 6.710938 -6.660156 6.1875 -8.082031 C 5.664062 -9.507812 5.402344 -11.070312 5.402344 -12.773438 Z M 5.402344 -12.773438 "/></g></g></g><g fill="#cecabf" fill-opacity="1"><g transform="translate(221.843535, 266.937631)"><g><path d="M 27.628906 -11.386719 L 20.402344 -11.386719 L 20.402344 -9.890625 L 24.488281 -9.890625 L 24.488281 -3.285156 C 23.394531 -2.578125 22.273438 -2.054688 21.132812 -1.714844 C 19.988281 -1.375 18.6875 -1.203125 17.226562 -1.203125 C 15.304688 -1.203125 13.625 -1.496094 12.191406 -2.082031 C 10.753906 -2.664062 9.5625 -3.472656 8.613281 -4.507812 C 7.664062 -5.542969 6.953125 -6.769531 6.476562 -8.195312 C 6.003906 -9.617188 5.765625 -11.179688 5.765625 -12.882812 C 5.765625 -14.5625 5.992188 -16.105469 6.441406 -17.519531 C 6.890625 -18.929688 7.566406 -20.144531 8.46875 -21.167969 C 9.367188 -22.191406 10.46875 -22.980469 11.769531 -23.539062 C 13.070312 -24.101562 14.585938 -24.378906 16.3125 -24.378906 C 17.457031 -24.378906 18.527344 -24.257812 19.527344 -24.015625 C 20.523438 -23.769531 21.410156 -23.453125 22.191406 -23.066406 C 22.96875 -22.675781 23.605469 -22.230469 24.105469 -21.734375 C 24.605469 -21.234375 24.925781 -20.730469 25.074219 -20.21875 L 27.699219 -20.21875 C 27.480469 -20.753906 27.109375 -21.355469 26.585938 -22.027344 C 26.0625 -22.695312 25.351562 -23.320312 24.453125 -23.90625 C 23.550781 -24.488281 22.4375 -24.980469 21.113281 -25.382812 C 19.785156 -25.785156 18.222656 -25.984375 16.421875 -25.984375 C 14.355469 -25.984375 12.453125 -25.695312 10.710938 -25.109375 C 8.972656 -24.527344 7.46875 -23.6875 6.203125 -22.589844 C 4.9375 -21.496094 3.953125 -20.152344 3.25 -18.558594 C 2.542969 -16.964844 2.191406 -15.15625 2.191406 -13.136719 C 2.191406 -11.410156 2.464844 -9.738281 3.011719 -8.121094 C 3.558594 -6.503906 4.398438 -5.054688 5.527344 -3.777344 C 6.660156 -2.5 8.101562 -1.476562 9.855469 -0.710938 C 11.605469 0.0546875 13.699219 0.4375 16.132812 0.4375 C 17.957031 0.4375 19.574219 0.238281 20.984375 -0.164062 C 22.398438 -0.566406 23.5625 -1.007812 24.488281 -1.496094 L 24.488281 0 L 27.628906 0 Z M 27.628906 -11.386719 "/></g></g></g><g fill="#cecabf" fill-opacity="1"><g transform="translate(251.660925, 266.937631)"><g><path d="M 4.378906 0 L 4.378906 -25.546875 L 7.699219 -25.546875 L 7.699219 -2.007812 L 20.875 -2.007812 L 20.875 0 Z M 4.378906 0 "/></g></g></g><g fill="#cecabf" fill-opacity="1"><g transform="translate(273.631631, 266.937631)"><g><path d="M 2.917969 -25.546875 L 2.917969 -9.855469 C 2.917969 -8.855469 3.015625 -7.753906 3.210938 -6.550781 C 3.40625 -5.347656 3.867188 -4.226562 4.597656 -3.195312 C 5.328125 -2.160156 6.410156 -1.296875 7.847656 -0.601562 C 9.28125 0.0898438 11.242188 0.4375 13.722656 0.4375 C 15.28125 0.4375 16.660156 0.195312 17.863281 -0.292969 C 19.070312 -0.777344 20.078125 -1.449219 20.894531 -2.300781 C 21.710938 -3.152344 22.324219 -4.140625 22.738281 -5.273438 C 23.152344 -6.40625 23.359375 -7.617188 23.359375 -8.90625 L 23.359375 -25.546875 L 21.75 -25.546875 L 21.75 -10.109375 C 21.75 -9.574219 21.738281 -9.03125 21.714844 -8.484375 C 21.691406 -7.9375 21.617188 -7.390625 21.496094 -6.84375 C 21.375 -6.296875 21.1875 -5.753906 20.929688 -5.21875 C 20.675781 -4.683594 20.304688 -4.148438 19.816406 -3.613281 C 18.941406 -2.664062 17.957031 -2.019531 16.859375 -1.679688 C 15.765625 -1.339844 14.621094 -1.167969 13.429688 -1.167969 C 12.410156 -1.167969 11.503906 -1.324219 10.710938 -1.640625 C 9.921875 -1.957031 9.171875 -2.433594 8.46875 -3.066406 C 7.90625 -3.550781 7.480469 -4.039062 7.191406 -4.527344 C 6.898438 -5.011719 6.679688 -5.492188 6.53125 -5.96875 C 6.386719 -6.441406 6.300781 -6.921875 6.277344 -7.410156 C 6.253906 -7.894531 6.242188 -8.382812 6.242188 -8.867188 L 6.242188 -25.546875 Z M 2.917969 -25.546875 "/></g></g></g><g fill="#cecabf" fill-opacity="1"><g transform="translate(151.721819, 237.953003)"><g><path d="M 2.917969 -1.570312 C 2.917969 -2.105469 3.113281 -2.566406 3.503906 -2.957031 C 3.894531 -3.34375 4.355469 -3.539062 4.890625 -3.539062 C 5.425781 -3.539062 5.886719 -3.34375 6.277344 -2.957031 C 6.667969 -2.566406 6.859375 -2.105469 6.859375 -1.570312 C 6.859375 -1.035156 6.667969 -0.570312 6.277344 -0.183594 C 5.886719 0.207031 5.425781 0.402344 4.890625 0.402344 C 4.355469 0.402344 3.894531 0.207031 3.503906 -0.183594 C 3.113281 -0.570312 2.917969 -1.035156 2.917969 -1.570312 Z M 2.917969 -1.570312 "/></g></g></g><g fill="#cecabf" fill-opacity="1"><g transform="translate(227.740335, 231.468383)"><g><path d="M 0.796875 5.828125 L 19.316406 5.828125 L 19.316406 3.921875 L 0.796875 3.921875 Z M 0.796875 5.828125 "/></g></g></g><g fill="#cecabf" fill-opacity="1"><g transform="translate(158.51608, 277.47458)"><g><path d="M 0.71875 -0.539062 C 0.71875 -0.179688 1.015625 0.121094 1.375 0.121094 C 1.734375 0.121094 2.035156 -0.179688 2.035156 -0.539062 C 2.035156 -0.898438 1.734375 -1.195312 1.375 -1.195312 C 1.015625 -1.195312 0.71875 -0.898438 0.71875 -0.539062 Z M 0.71875 -0.539062 "/></g></g></g><g fill="#cecabf" fill-opacity="1"><g transform="translate(179.366079, 289.47458)"><g><path d="M 0.71875 -0.539062 C 0.71875 -0.179688 1.015625 0.121094 1.375 0.121094 C 1.734375 0.121094 2.035156 -0.179688 2.035156 -0.539062 C 2.035156 -0.898438 1.734375 -1.195312 1.375 -1.195312 C 1.015625 -1.195312 0.71875 -0.898438 0.71875 -0.539062 Z M 0.71875 -0.539062 "/></g></g></g><path stroke-linecap="butt" transform="matrix(0.75, 0, 0, 0.75, 229.258729, 282.558145)" fill="none" stroke-linejoin="miter" d="M -0.00122259 1.000599 L 84.587325 1.000599 " stroke="#cecabf" stroke-width="2" stroke-opacity="1" stroke-miterlimit="4"/><path stroke-linecap="butt" transform="matrix(0.75, 0, 0, 0.75, 78.594491, 282.558145)" fill="none" stroke-linejoin="miter" d="M -0.000988452 1.000599 L 84.587559 1.000599 " stroke="#cecabf" stroke-width="2" stroke-opacity="1" stroke-miterlimit="4"/><g fill="#cecabf" fill-opacity="1"><g transform="translate(158.536089, 287.058144)"><g><path d="M 1.925781 0 L 1.925781 -7.980469 L 0.933594 -7.980469 L 0.933594 0 Z M 1.925781 0 "/></g></g></g><g fill="#cecabf" fill-opacity="1"><g transform="translate(164.981642, 287.058144)"><g><path d="M 7.535156 0 L 7.535156 -7.980469 L 6.542969 -7.980469 L 6.542969 -1.675781 L 1.949219 -7.980469 L 0.933594 -7.980469 L 0.933594 0 L 1.925781 0 L 1.925781 -6.4375 L 6.578125 0 Z M 7.535156 0 "/></g></g></g><g fill="#cecabf" fill-opacity="1"><g transform="translate(177.033231, 287.058144)"><g><path d="M 0.453125 -1.125 C 1.113281 -0.382812 2.128906 0.144531 3.515625 0.144531 C 5.671875 0.144531 6.460938 -1.039062 6.460938 -2.199219 C 6.460938 -3.875 4.976562 -4.28125 3.671875 -4.628906 C 2.65625 -4.90625 1.734375 -5.144531 1.734375 -5.945312 C 1.734375 -6.699219 2.417969 -7.214844 3.375 -7.214844 C 4.246094 -7.214844 5.085938 -6.914062 5.683594 -6.257812 L 6.28125 -6.984375 C 5.609375 -7.691406 4.664062 -8.097656 3.445312 -8.097656 C 1.878906 -8.097656 0.707031 -7.203125 0.707031 -5.886719 C 0.707031 -4.320312 2.128906 -3.960938 3.410156 -3.625 C 4.460938 -3.335938 5.429688 -3.074219 5.429688 -2.117188 C 5.429688 -1.507812 4.976562 -0.742188 3.554688 -0.742188 C 2.429688 -0.742188 1.566406 -1.292969 1.039062 -1.878906 Z M 0.453125 -1.125 "/></g></g></g><g fill="#cecabf" fill-opacity="1"><g transform="translate(187.506909, 287.058144)"><g><path d="M 7.761719 0 L 4.546875 -7.980469 L 3.3125 -7.980469 L 0.109375 0 L 1.207031 0 L 1.914062 -1.769531 L 5.957031 -1.769531 L 6.664062 0 Z M 5.660156 -2.65625 L 2.199219 -2.65625 L 3.9375 -7.09375 Z M 5.660156 -2.65625 "/></g></g></g><g fill="#cecabf" fill-opacity="1"><g transform="translate(198.960842, 287.058144)"><g><path d="M 7.761719 0 L 4.546875 -7.980469 L 3.3125 -7.980469 L 0.109375 0 L 1.207031 0 L 1.914062 -1.769531 L 5.957031 -1.769531 L 6.664062 0 Z M 5.660156 -2.65625 L 2.199219 -2.65625 L 3.9375 -7.09375 Z M 5.660156 -2.65625 "/></g></g></g><g fill="#cecabf" fill-opacity="1"><g transform="translate(209.613288, 287.058144)"><g><path d="M 3.898438 0 L 3.898438 -7.09375 L 6.4375 -7.09375 L 6.4375 -7.980469 L 0.382812 -7.980469 L 0.382812 -7.09375 L 2.90625 -7.09375 L 2.90625 0 Z M 3.898438 0 "/></g></g></g></svg>